HIERARCHY
ROOT Reference
{
  OFFSET 0 0 0
  CHANNELS 6 Xposition Yposition Zposition Zrotation Xrotation Yrotation
  JOINT Hips
  {
    OFFSET 251.394 724.17 483.536
    CHANNELS 3 Zrotation Xrotation Yrotation
    JOINT RightUpLeg
    {
      OFFSET -0.450515 -23.4426 -1.37224
      CHANNELS 3 Zrotation Xrotation Yrotation
      JOINT RightLeg
      {
        OFFSET 112.821 0.0872427 -0.321027
        CHANNELS 3 Zrotation Xrotation Yrotation
        JOINT RightFoot
        {
          OFFSET 105.718 0.000193788 0.0213165
          CHANNELS 3 Zrotation Xrotation Yrotation
          JOINT RightToeBase
          {
            OFFSET 37.638 -0.000116272 0.00224792
            CHANNELS 3 Zrotation Xrotation Yrotation
            JOINT RightToeEnd
            {
              OFFSET 21.2112 0.114605 -0.000138184
              CHANNELS 3 Zrotation Xrotation Yrotation
              End Site
              {
                OFFSET 0 0 0
              }
            }
          }
        }
      }
    }
    JOINT LeftUpLeg
    {
      OFFSET -0.449508 23.4315 -1.37054
      CHANNELS 3 Zrotation Xrotation Yrotation
      JOINT LeftLeg
      {
        OFFSET 112.821 -0.0485242 -0.372458
        CHANNELS 3 Zrotation Xrotation Yrotation
        JOINT LeftFoot
        {
          OFFSET 105.716 0.00496094 -0.0229443
          CHANNELS 3 Zrotation Xrotation Yrotation
          JOINT LeftToeBase
          {
            OFFSET 37.639 0 0.00158905
            CHANNELS 3 Zrotation Xrotation Yrotation
            JOINT LeftToeEnd
            {
              OFFSET 21.2113 -0.125031 -0.00017438
              CHANNELS 3 Zrotation Xrotation Yrotation
              End Site
              {
                OFFSET 0 0 0
              }
            }
          }
        }
      }
    }
    JOINT Spine
    {
      OFFSET -5.01225 0.000463591 -9.60395
      CHANNELS 3 Zrotation Xrotation Yrotation
      JOINT Spine1
      {
        OFFSET 26.0222 -0.000271301 -0.000155029
        CHANNELS 3 Zrotation Xrotation Yrotation
        JOINT Spine2
        {
          OFFSET 27.173 -0.000155029 -0.000310058
          CHANNELS 3 Zrotation Xrotation Yrotation
          JOINT Spine3
          {
            OFFSET 36.3953 -0.000232544 7.75146e-005
            CHANNELS 3 Zrotation Xrotation Yrotation
            JOINT Neck
            {
              OFFSET 36.4331 0 -3.00261
              CHANNELS 3 Zrotation Xrotation Yrotation
              JOINT Head
              {
                OFFSET 23.0407 -0.000232544 -0.000310058
                CHANNELS 3 Zrotation Xrotation Yrotation
                End Site
                {
                  OFFSET 0 0 0
                }
              }
            }
            JOINT LeftShoulder
            {
              OFFSET 20.1317 6.74168 -12.6061
              CHANNELS 3 Zrotation Xrotation Yrotation
              JOINT LeftArm
              {
                OFFSET 34.2172 -5.81359e-005 7.75146e-005
                CHANNELS 3 Zrotation Xrotation Yrotation
                JOINT LeftForeArm
                {
                  OFFSET 65.4129 -0.0821605 0.0585235
                  CHANNELS 3 Zrotation Xrotation Yrotation
                  JOINT LeftHand
                  {
                    OFFSET 67.3883 0.0359667 0.0112396
                    CHANNELS 3 Zrotation Xrotation Yrotation
                    JOINT LeftHandThumb1
                    {
                      OFFSET 8.78386 2.85353 -6.05362
                      CHANNELS 3 Zrotation Xrotation Yrotation
                      JOINT LeftHandThumb2
                      {
                        OFFSET 8.25498 -0.000116272 -0.000174407
                        CHANNELS 3 Zrotation Xrotation Yrotation
                        JOINT LeftHandThumb3
                        {
                          OFFSET 7.24822 0.000310058 5.81358e-005
                          CHANNELS 3 Zrotation Xrotation Yrotation
                          JOINT LeftHandThumb4
                          {
                            OFFSET 7.0004 -3.87568e-005 -0.000310057
                            CHANNELS 3 Zrotation Xrotation Yrotation
                            End Site
                            {
                              OFFSET 0 0 0
                            }
                          }
                        }
                      }
                    }
                    JOINT LeftHandIndex1
                    {
                      OFFSET 24.0991 -1.01537 -5.40558
                      CHANNELS 3 Zrotation Xrotation Yrotation
                      JOINT LeftHandIndex2
                      {
                        OFFSET 7.26759 -0.000290679 -0.000465086
                        CHANNELS 3 Zrotation Xrotation Yrotation
                        JOINT LeftHandIndex3
                        {
                          OFFSET 7.13628 -1.93787e-005 0.000232543
                          CHANNELS 3 Zrotation Xrotation Yrotation
                          JOINT LeftHandIndex4
                          {
                            OFFSET 5.46699 9.68932e-005 -0.000387571
                            CHANNELS 3 Zrotation Xrotation Yrotation
                            End Site
                            {
                              OFFSET 0 0 0
                            }
                          }
                        }
                      }
                    }
                    JOINT LeftHandMiddle1
                    {
                      OFFSET 24.4604 -2.52837 0.918567
                      CHANNELS 3 Zrotation Xrotation Yrotation
                      JOINT LeftHandMiddle2
                      {
                        OFFSET 7.41627 -5.81359e-005 0.000116271
                        CHANNELS 3 Zrotation Xrotation Yrotation
                        JOINT LeftHandMiddle3
                        {
                          OFFSET 8.76829 3.87573e-005 -7.75142e-005
                          CHANNELS 3 Zrotation Xrotation Yrotation
                          JOINT LeftHandMiddle4
                          {
                            OFFSET 6.07588 -0.00013565 -5.81356e-005
                            CHANNELS 3 Zrotation Xrotation Yrotation
                            End Site
                            {
                              OFFSET 0 0 0
                            }
                          }
                        }
                      }
                    }
                    JOINT LeftHandRing1
                    {
                      OFFSET 22.465 -1.97467 6.3466
                      CHANNELS 3 Zrotation Xrotation Yrotation
                      JOINT LeftHandRing2
                      {
                        OFFSET 7.36666 -0.000232544 0.000387571
                        CHANNELS 3 Zrotation Xrotation Yrotation
                        JOINT LeftHandRing3
                        {
                          OFFSET 8.07624 -0.000465087 -0.000203475
                          CHANNELS 3 Zrotation Xrotation Yrotation
                          JOINT LeftHandRing4
                          {
                            OFFSET 6.04433 0.00013565 3.87571e-005
                            CHANNELS 3 Zrotation Xrotation Yrotation
                            End Site
                            {
                              OFFSET 0 0 0
                            }
                          }
                        }
                      }
                    }
                    JOINT LeftHandPinky1
                    {
                      OFFSET 19.5278 0.352933 10.4295
                      CHANNELS 3 Zrotation Xrotation Yrotation
                      JOINT LeftHandPinky2
                      {
                        OFFSET 6.16525 5.8136e-005 -0.000251921
                        CHANNELS 3 Zrotation Xrotation Yrotation
                        JOINT LeftHandPinky3
                        {
                          OFFSET 6.14448 -0.000329434 -0.00510625
                          CHANNELS 3 Zrotation Xrotation Yrotation
                          JOINT LeftHandPinky4
                          {
                            OFFSET 4.98555 0.000116272 0.000116271
                            CHANNELS 3 Zrotation Xrotation Yrotation
                            End Site
                            {
                              OFFSET 0 0 0
                            }
                          }
                        }
                      }
                    }
                  }
                }
              }
            }
            JOINT RightShoulder
            {
              OFFSET 20.1309 -6.74152 -12.6063
              CHANNELS 3 Zrotation Xrotation Yrotation
              JOINT RightArm
              {
                OFFSET 34.2171 7.75146e-005 7.75146e-005
                CHANNELS 3 Zrotation Xrotation Yrotation
                JOINT RightForeArm
                {
                  OFFSET 65.4492 0.242543 -0.176501
                  CHANNELS 3 Zrotation Xrotation Yrotation
                  JOINT RightHand
                  {
                    OFFSET 67.3888 -0.0867388 0.0597442
                    CHANNELS 3 Zrotation Xrotation Yrotation
                    JOINT RightHandThumb1
                    {
                      OFFSET 8.78307 -2.85357 -6.05302
                      CHANNELS 3 Zrotation Xrotation Yrotation
                      JOINT RightHandThumb2
                      {
                        OFFSET 8.25493 -7.75145e-005 0
                        CHANNELS 3 Zrotation Xrotation Yrotation
                        JOINT RightHandThumb3
                        {
                          OFFSET 7.24797 -0.000174408 0.000155029
                          CHANNELS 3 Zrotation Xrotation Yrotation
                          JOINT RightHandThumb4
                          {
                            OFFSET 7.00062 0 0
                            CHANNELS 3 Zrotation Xrotation Yrotation
                            End Site
                            {
                              OFFSET 0 0 0
                            }
                          }
                        }
                      }
                    }
                    JOINT RightHandIndex1
                    {
                      OFFSET 24.0991 1.01525 -5.40578
                      CHANNELS 3 Zrotation Xrotation Yrotation
                      JOINT RightHandIndex2
                      {
                        OFFSET 7.26773 7.75144e-005 0.000232543
                        CHANNELS 3 Zrotation Xrotation Yrotation
                        JOINT RightHandIndex3
                        {
                          OFFSET 7.13572 -0.000310058 3.87571e-005
                          CHANNELS 3 Zrotation Xrotation Yrotation
                          JOINT RightHandIndex4
                          {
                            OFFSET 5.46717 0 3.87572e-005
                            CHANNELS 3 Zrotation Xrotation Yrotation
                            End Site
                            {
                              OFFSET 0 0 0
                            }
                          }
                        }
                      }
                    }
                    JOINT RightHandMiddle1
                    {
                      OFFSET 24.4603 2.52899 0.918547
                      CHANNELS 3 Zrotation Xrotation Yrotation
                      JOINT RightHandMiddle2
                      {
                        OFFSET 7.41641 -0.000116272 -0.000116272
                        CHANNELS 3 Zrotation Xrotation Yrotation
                        JOINT RightHandMiddle3
                        {
                          OFFSET 8.76765 -3.87577e-005 0.000232543
                          CHANNELS 3 Zrotation Xrotation Yrotation
                          JOINT RightHandMiddle4
                          {
                            OFFSET 6.07609 -0.000193787 -0.000116271
                            CHANNELS 3 Zrotation Xrotation Yrotation
                            End Site
                            {
                              OFFSET 0 0 0
                            }
                          }
                        }
                      }
                    }
                    JOINT RightHandRing1
                    {
                      OFFSET 22.465 1.97571 6.34696
                      CHANNELS 3 Zrotation Xrotation Yrotation
                      JOINT RightHandRing2
                      {
                        OFFSET 7.36684 0.000193786 0.000155029
                        CHANNELS 3 Zrotation Xrotation Yrotation
                        JOINT RightHandRing3
                        {
                          OFFSET 8.07614 -0.000271301 0
                          CHANNELS 3 Zrotation Xrotation Yrotation
                          JOINT RightHandRing4
                          {
                            OFFSET 6.04468 0.000232543 0
                            CHANNELS 3 Zrotation Xrotation Yrotation
                            End Site
                            {
                              OFFSET 0 0 0
                            }
                          }
                        }
                      }
                    }
                    JOINT RightHandPinky1
                    {
                      OFFSET 19.5277 -0.352346 10.4296
                      CHANNELS 3 Zrotation Xrotation Yrotation
                      JOINT RightHandPinky2
                      {
                        OFFSET 6.16508 0 0.000232543
                        CHANNELS 3 Zrotation Xrotation Yrotation
                        JOINT RightHandPinky3
                        {
                          OFFSET 6.14396 -0.000155048 -0.0048834
                          CHANNELS 3 Zrotation Xrotation Yrotation
                          JOINT RightHandPinky4
                          {
                            OFFSET 4.98577 -7.75146e-005 -7.75143e-005
                            CHANNELS 3 Zrotation Xrotation Yrotation
                            End Site
                            {
                              OFFSET 0 0 0
                            }
                          }
                        }
                      }
                    }
                  }
                }
              }
            }
          }
        }
      }
    }
  }
}
MOTION
Frames:	4
Frame Time:	0.0333333
0 0 0 -90 -7.01671e-015 -180 -1.95563 -57.2767 -97.7346 -153.966 -41.4275 -55.0065 2.08608 -2.25409 -136.941 -12.2697 -34.9137 -2.96719 18.4078 -6.93757 33.1396 -3.25912e-008 1.41792e-006 -86.4974 154.817 38.1232 -56.0273 -2.54841 2.77402 -137.184 4.03597 30.9715 6.43783 -29.3153 8.98798 8.32067 6.76416e-006 2.95947e-007 -86.4974 -0.0837371 0.499791 123.714 4.24847 2.26592 -19.4109 -0.0320628 2.71217 -14.9482 -0.800501 4.50821 -4.8308 0.533256 -2.97788 25.5649 -3.35998 -3.08126 46.0455 97.9104 25.6645 -2.83205 36.3732 7.46645 77.3064 -17.315 -3.6125 56.6702 -16.52 -24.627 -16.2356 -173.375 -50.1252 136.622 0.000344537 1.83537e-005 5.0095 0.000185734 0.00012832 25.7996 0.000257837 -0.00128792 -0.000137669 100.42 79.0801 -71.7825 0.000191949 -0.000902519 54.6253 0.00166311 5.61502e-005 51.8876 -0.000587398 -0.000490063 -0.00045165 15.4719 85.6673 19.7588 0.000299933 -0.000178899 65.9844 0.000989755 -0.00012602 28.9976 -0.000546414 -0.000282171 9.39134e-005 16.1786 83.9647 32.3095 0.000581337 -0.00103512 38.6715 0.00162596 0.000842005 41.1953 -0.000628374 -0.000669576 0.000686539 20.9219 81.3853 5.33288 0.00147838 -0.000491497 45.7782 0.000415938 0.00025259 33.0154 -2.17505e-005 -6.40349e-005 -0.00041483 -88.0014 -26.1598 9.28764 -31.0707 21.1073 83.2359 0.419435 -6.42228 58.0265 60.4962 37.737 -54.3037 173.375 50.1252 136.622 -6.42904e-005 4.00967e-005 5.0095 0.000167036 9.67534e-005 25.7996 -1.52588e-005 -9.15529e-005 -180 -100.42 -79.0802 -71.7825 -0.000207655 0.000138185 54.6253 0.000174416 -3.59035e-005 51.8875 -9.15529e-005 -3.05176e-005 -180 -15.4718 -85.6673 19.7588 -6.47398e-005 -7.4514e-005 65.9845 0.000101914 1.7602e-005 28.9976 -1.52588e-005 3.05176e-005 -180 -16.1789 -83.9646 32.3093 -2.64555e-005 6.76235e-005 38.6714 0.000101424 -0.000243939 41.1954 1.52588e-005 -6.10352e-005 -180 -20.9216 -81.3853 5.33319 -0.00010593 0.0001837 45.7782 -1.35846e-005 -7.77246e-005 33.0154 1.52588e-005 -1.52588e-005 180 
0 0 0 -90 -7.01671e-015 -180 -1.63381 -56.9777 -97.5023 -154.198 -41.1402 -55.5504 2.22998 -2.38736 -136.707 -12.1743 -34.6388 -2.88614 18.435 -6.79981 33.5317 4.35654e-008 -1.66974e-005 -86.4974 154.686 38.313 -55.7187 -2.58734 2.81073 -137.138 3.94216 30.9482 6.38989 -29.7134 9.01903 8.45735 6.7146e-006 1.60568e-006 -86.4974 -0.083692 0.49923 123.721 4.45087 1.88836 -19.1363 -0.177413 2.44161 -14.8846 -0.738206 4.20731 -4.40153 0.652416 -2.96016 25.7621 -3.45415 -2.70132 46.3133 96.9659 25.6943 -2.62709 37.0577 7.72618 76.9597 -16.5782 -5.37157 58.1882 -16.304 -22.1465 -16.4048 -173.375 -50.1252 136.622 0.000344599 4.0615e-006 5.0095 0.000185081 0.000127686 25.7996 0.000257837 -0.00128792 -0.000137669 100.42 79.0801 -71.7825 0.000192922 -0.000902138 54.6254 0.00165808 5.65754e-005 51.8876 -0.000587397 -0.000580644 -0.000451651 15.4719 85.6673 19.7587 0.000301789 -0.000174579 65.9844 0.000986899 -0.00012163 28.9976 -0.000545564 -0.000281525 -0.00118632 16.1786 83.9647 32.3095 0.000582219 -0.00103839 38.6715 0.00162215 0.000844614 41.1953 -0.000630089 -0.00067021 -0.000594017 20.9219 81.3853 5.33288 0.00147862 -0.000492193 45.7782 0.000415029 0.000246475 33.0154 -2.2199e-005 -6.48929e-005 -0.00169645 -87.5861 -25.7823 7.95102 -31.3759 20.6789 84.7782 0.824366 -6.21099 57.9947 61.228 38.7783 -55.1109 173.325 50.1396 136.676 -8.77794e-005 3.52349e-005 5.03084 0.000166425 6.97558e-005 25.7996 -1.52588e-005 -9.15529e-005 -180 -100.455 -79.0655 -71.8835 -0.000219527 0.000131088 54.6082 0.000173974 -6.05011e-005 51.8875 -9.15529e-005 -3.05176e-005 -180 -15.6994 -85.6768 19.5214 -6.51264e-005 -7.96133e-005 65.9845 0.000105774 2.16178e-005 29.0505 -1.52588e-005 1.52588e-005 -180 -16.1788 -83.9646 32.3205 1.11811e-005 0.000104572 38.7016 7.98382e-005 -0.000271173 41.2249 1.52588e-005 -7.6294e-005 -180 -20.8407 -81.3916 5.46912 -0.000100972 0.000181395 45.7975 -1.05393e-005 -5.73616e-005 33.0447 1.52588e-005 -1.52588e-005 180 
0 0 0 -90 -7.01671e-015 -180 -1.16547 -56.7406 -97.2897 -154.645 -40.6037 -56.3224 2.31464 -2.45699 -136.492 -11.6414 -34.3736 -2.52937 18.3704 -6.79306 33.4851 -1.07518e-007 -3.64473e-005 -86.4974 154.615 38.703 -55.6095 -2.62713 2.84473 -137.054 4.12369 30.5856 6.08162 -29.3158 8.85842 8.58538 6.83477e-006 2.42175e-007 -86.4974 -0.083106 0.497682 123.684 4.7889 1.44593 -18.5457 -0.439879 2.19201 -14.7738 -0.63564 3.85348 -4.16754 0.740601 -2.99408 25.7995 -3.60959 -2.29369 46.7024 95.4167 25.7322 -2.1143 38.0432 7.53205 75.9203 -15.3052 -6.43248 60.6995 -17.0684 -19.9006 -17.1081 -173.375 -50.1253 136.622 0.000344732 -2.7269e-005 5.0095 0.000187471 0.000126082 25.7997 0.000257838 -0.00128792 -0.000137669 100.42 79.0801 -71.7825 0.000192394 -0.000903763 54.6254 0.00165235 5.75495e-005 51.8876 -0.000585692 -0.000490491 -0.000633612 15.4719 85.6673 19.7588 0.000296709 -0.000184949 65.9844 0.000984931 -0.000115512 28.9977 -0.000544711 -0.00028216 -0.00246646 16.1786 83.9647 32.3095 0.000579707 -0.00104928 38.6715 0.00161759 0.000851012 41.1954 -0.000630095 -0.000669777 -0.00187415 20.9219 81.3853 5.33292 0.00147947 -0.000495648 45.7783 0.00041485 0.000239088 33.0154 -2.08971e-005 -6.48981e-005 -0.00297638 -86.4065 -25.3487 6.33338 -32.1534 19.7325 86.7162 2.04147 -5.2319 57.9401 61.5965 40.549 -56.2515 173.18 50.1815 136.835 -6.04383e-005 3.18611e-005 5.09341 0.000166596 1.44504e-005 25.7997 -1.52588e-005 -0.000106812 -180 -100.558 -79.0222 -72.1778 -0.000237781 0.000114395 54.5911 0.000179953 -9.95473e-005 51.8875 -9.15529e-005 -4.57764e-005 -180 -16.3743 -85.7044 18.8176 -6.52541e-005 -8.86369e-005 65.9845 0.000132119 -1.24435e-005 29.2058 -1.52588e-005 1.52588e-005 -180 -16.1787 -83.9647 32.3317 -1.15144e-005 7.24141e-005 38.7903 7.04096e-005 -0.000259807 41.3117 1.52588e-005 -7.6294e-005 -180 -20.6021 -81.4097 5.86932 -9.02959e-005 0.000179499 45.8168 -0.00396676 -0.00264722 33.1528 1.52588e-005 -3.05176e-005 180 
0 0 0 -90 -7.01671e-015 -180 -0.85141 -56.4454 -97.1403 -155.037 -40.2108 -56.9414 2.33995 -2.45432 -136.188 -11.6041 -33.8592 -2.21348 18.3194 -6.6118 33.9239 -8.88151e-008 -7.48542e-005 -86.4974 154.546 38.7685 -55.5044 -2.641 2.84116 -136.889 4.17017 30.1896 6.01341 -29.25 8.67632 8.9305 6.85589e-006 -4.18298e-006 -86.4974 -0.0821756 0.495146 123.63 4.99717 1.08602 -18.1039 -0.445742 1.90508 -14.5336 -0.541499 3.57894 -4.00356 0.852206 -3.04252 26.127 -3.55189 -1.81543 46.7746 94.5829 25.745 -1.6988 38.9554 8.80234 75.1547 -14.4799 -9.36988 62.5824 -16.0223 -15.8647 -16.7712 -173.375 -50.1253 136.622 0.000344799 -8.83748e-005 5.0095 0.000186876 0.000125394 25.7996 0.000257837 -0.00129134 -0.000137669 100.419 79.0801 -71.7824 0.000193741 -0.000913657 54.6254 0.00164608 5.32023e-005 51.8876 -0.000585692 -0.000580943 -0.000633613 15.4718 85.6673 19.7588 0.000301265 -0.000177972 65.9844 0.000980622 -0.000112373 28.9977 -0.000544711 -0.000282154 -0.00374659 16.1785 83.9647 32.3096 0.000582215 -0.00106372 38.6715 0.00161284 0.000853894 41.1954 -0.000630101 -0.000669984 -0.0031546 20.9218 81.3853 5.33293 0.00147984 -0.00050813 45.7783 0.00041412 0.000217786 33.0154 -2.17691e-005 -6.57574e-005 -0.00425821 -85.8245 -25.0734 4.78946 -32.4705 19.9076 88.3107 1.98792 -4.24426 58.0384 61.7452 42.2534 -57.0198 172.942 50.2491 137.093 -6.39372e-005 4.85135e-005 5.19508 0.000166948 -9.76556e-005 25.7997 -1.52588e-005 -0.000122071 -180 -100.72 -78.9513 -72.6517 -0.000245043 0.000122915 54.5496 0.000169857 -0.000208408 51.8875 -9.15529e-005 -6.10352e-005 -180 -17.4897 -85.7478 17.6553 -6.39258e-005 -9.64194e-005 65.9845 0.000105094 2.95944e-005 29.4581 -1.52588e-005 7.01671e-015 -180 -16.1785 -83.9647 32.3429 1.49872e-005 8.05719e-005 38.9344 7.53268e-005 -0.000271587 41.4782 1.52588e-005 -9.15528e-005 -180 -20.2108 -81.4383 6.52309 -0.000103291 0.000175971 45.8719 -0.00791805 -0.00524394 33.2609 1.52588e-005 -4.57764e-005 180 
